<svg xmlns="http://www.w3.org/2000/svg" viewBox="0 0 512 512">
  <defs>
    <linearGradient id="robot-gradient" x1="0%" y1="0%" x2="100%" y2="100%">
      <stop offset="0%" style="stop-color:#ffb347;stop-opacity:1" />
      <stop offset="100%" style="stop-color:#ffcc33;stop-opacity:1" />
    </linearGradient>
  </defs>
  
  <!-- Antenna -->
  <rect x="246" y="40" width="20" height="60" fill="#cc7832" />
  <circle cx="256" cy="40" r="15" fill="#cc7832" />

  <!-- Head -->
  <rect x="156" y="100" width="200" height="140" rx="30" fill="url(#robot-gradient)" />
  
  <!-- Eyes -->
  <circle cx="206" cy="160" r="15" fill="#333" />
  <circle cx="306" cy="160" r="15" fill="#333" />
  
  <!-- Mouth (simple line) -->
  <rect x="206" y="200" width="100" height="10" rx="5" fill="#333" />
  
  <!-- Body -->
  <path d="M166 260 h180 a20 20 0 0 1 20 20 v120 a20 20 0 0 1 -20 20 h-180 a20 20 0 0 1 -20 -20 v-120 a20 20 0 0 1 20 -20 z" fill="url(#robot-gradient)" />
  
  <!-- Arms -->
  <rect x="106" y="280" width="40" height="100" rx="20" fill="#cc7832" />
  <rect x="366" y="280" width="40" height="100" rx="20" fill="#cc7832" />
</svg>
